<?xml version="1.0" encoding="UTF-8"?>
<svg id="Layer_2" data-name="Layer 2" xmlns="http://www.w3.org/2000/svg" viewBox="0 0 167.84 232.6">
  <g id="logo">
    <g>
      <path id="_309137464" data-name=" 309137464" d="M38.94,177.64c-.62.94-.89,1.39-.93,1.5.6-.96,1.93-3.03.93-1.5Z" style="fill: #434343; stroke-width: 0px;"/>
      <path id="_309137416" data-name=" 309137416" d="M118.45,44.62l-2.16-5.05c8.82-3.78,19.44-31.68,20.86-35.49.2-.76.58-1.49,1.12-2.13,1.97-2.32,5.44-2.6,7.76-.64h0c36.11,30.64,20.56,61.26,2.22,82.89-5.18,6.11-10.5,11.37-14.84,15.67-.57.56-1.13,1.06-1.67,1.5.66-.32,1.39-.6,2.21-.82,1.06-.3,2.23-.29,3.35.1,2.87,1.01,4.37,4.16,3.35,7.03-8.08,22.83-20.46,31.87-29.9,35.77,2.45,1.56,3.28,4.79,1.83,7.35h0c-19.53,34.57-49.02,24.32-55.22,21.67,1.06-1.32,2.12-2.64,3.18-3.95,6.62-8.23,13.1-16.58,19.43-25.03,10.26-13.69,20.18-27.67,29.59-41.95,8.37-12.7,16.43-25.74,23.63-39.14,3.41-6.34,6.64-12.82,9.49-19.44,2.25-5.24,4.34-10.72,5.77-16.24,1.77-6.87,3.4-17.37-2.97-22.5-.53-.43-1.09-.81-1.69-1.13-1.34-.72-3-.2-3.71,1.14-.72,1.34-.2,3,1.14,3.72.65.35.39.18.86.55,4.32,3.47,2.22,12.34,1.06,16.83-1.39,5.38-3.43,10.7-5.63,15.79-2.75,6.37-5.88,12.6-9.16,18.71-7.17,13.36-15.22,26.37-23.56,39.03-9.35,14.19-19.21,28.08-29.41,41.67-6.22,8.3-12.59,16.49-19.09,24.58-.96,1.2-1.92,2.39-2.89,3.59-23.99-59.35,11.21-72.59,16.02-74.1,1.18-.45,2.52-.5,3.81-.05,7,2.48,7.9-19.39,7.98-22.33-.05-1.5.51-3.02,1.68-4.15l.02.02c5.35-5.16,11.34-4.96,16.42-3.08.81-14.89,14.23-23.79,16.09-24.95.28-.19.58-.35.9-.49l2.17,5.06h0Z" style="fill: #222d60; stroke-width: 0px;"/>
      <path id="_309136768" data-name=" 309136768" d="M53.36,168.69c-2.54,3.16-4.66,6.7-7.6,9.49L0,221.72l12.42,5.57c13.49-15.21,24.91-29.8,37.61-45.68,2.44-3.05,4.87-6.1,7.31-9.14-2.2-.86-3.99-3.77-3.99-3.77h0Z" style="fill: #222d60; fill-rule: evenodd; stroke-width: 0px;"/>
      <path d="M9.68,224.3c7.17,5.05,15.82,7.84,24.57,8.2,4.3.17,8.66-.28,12.82-1.33,4.44-1.13,8.62-3.05,12.93-4.56s8.5-2.58,12.9-1.85,8.37,2.6,12.4,4.28,8.2,3.14,12.64,3.48c4.31.33,8.67-.37,12.83-1.43,9.2-2.33,18.16-6.76,27.85-6.35,3.22.14,3.21-4.86,0-5-8.71-.37-16.9,2.89-25.09,5.38-3.86,1.17-7.81,2.23-11.85,2.44-4.26.22-8.21-.67-12.18-2.18s-7.95-3.51-12.12-4.71c-4.46-1.29-8.99-1.42-13.52-.42s-8.72,2.91-13.03,4.48c-3.94,1.43-7.98,2.46-12.18,2.72-9.41.58-18.76-2.04-26.47-7.47-1.1-.78-2.78-.2-3.42.9-.73,1.25-.21,2.64.9,3.42h0Z" style="fill: #222d60; stroke-width: 0px;"/>
    </g>
  </g>
</svg>